#!OML:ASF E:\emotionWalksFemale\Project 1\Capture day 1\Session 1\Female1.ASF
:FULLY-SPECIFIED
:DEGREES
222
root 8.14105 14.7623 15.2978 -177.078 -3.1832 -177.949
lowerback 14.6582 1.15542 0.968982
upperback -3.10412 1.7261 -0.056234
thorax -11.6377 0.745156 -1.03145
lowerneck -7.78868 -4.13166 -6.67273
upperneck -0.283395 -5.16659 6.04947
head 1.6429 -2.52159 2.9294
rclavicle -7.64079e-015 3.97569e-015
rhumerus -35.4273 17.2319 -93.5281
rradius 39.0788
rwrist 20.1414
rhand -9.83625 -57.5158
rfingers 7.12502
rthumb 16.1413 -446.864
lclavicle -7.64079e-015 3.97569e-015
lhumerus -36.4222 -8.5483 91.4298
lradius 44.4931
lwrist -12.8608
lhand -8.43686 -36.8288
lfingers 7.12502
lthumb 17.4884 -7.59545
rfemur -23.2419 2.77276 28.7577
rtibia 45.2047
rfoot -24.0272 -21.5259
rtoes -1.35923
lfemur -28.4574 -5.76809 -18.8061
ltibia 51.7175
lfoot -29.7891 8.48803
ltoes -35.9349
223
root 8.13483 14.8145 15.2702 -177.151 -3.02306 -178.043
lowerback 14.4722 1.13983 0.937235
upperback -3.16144 1.68696 -0.153494
thorax -11.5908 0.725391 -1.10639
lowerneck -7.81247 -4.0332 -6.61269
upperneck 0.0212201 -5.04319 6.1445
head 1.74092 -2.454 2.95603
rclavicle 2.21893e-014 -1.03368e-014
rhumerus -35.352 17.501 -93.8391
rradius 39.4599
rwrist 20.0841
rhand -9.21135 -57.3789
rfingers 7.12502
rthumb 16.743 -446.677
lclavicle 2.21893e-014 -1.03368e-014
lhumerus -36.5581 -8.5859 91.3504
lradius 44.9145
lwrist -12.3205
lhand -7.6248 -36.6317
lfingers 7.12502
lthumb 18.2698 -7.46964
rfemur -22.4324 2.63615 28.5931
rtibia 44.0201
rfoot -23.6724 -21.1463
rtoes -1.47535
lfemur -27.638 -5.92587 -18.9391
ltibia 50.6454
lfoot -29.3965 8.36976
ltoes -35.1334
224
root 8.1305 14.868 15.2403 -177.258 -2.80485 -178.1
lowerback 14.3753 1.16455 0.913797
upperback -3.31383 1.70385 -0.257074
thorax -11.7026 0.728542 -1.21055
lowerneck -7.58665 -3.95743 -6.49452
upperneck 0.350658 -4.96367 6.17509
head 1.80061 -2.41047 2.95098
rclavicle -1.02374e-014 -4.37326e-015
rhumerus -35.5179 17.7516 -94.2797
rradius 39.7346
rwrist 19.5717
rhand -8.77921 -57.3373
rfingers 7.12502
rthumb 17.159 -446.6
lclavicle -1.02374e-014 -4.37326e-015
lhumerus -36.7711 -8.51451 91.2475
lradius 45.0718
lwrist -12.0114
lhand -7.40867 -36.7763
lfingers 7.12502
lthumb 18.4777 -7.63394
rfemur -21.5521 2.67606 28.4845
rtibia 42.8338
rfoot -23.2963 -20.8957
rtoes -1.55525
lfemur -26.7743 -6.05503 -19.0311
ltibia 49.5907
lfoot -28.9909 8.36219
ltoes -33.8877
225
root 8.12703 14.9096 15.2142 -177.38 -2.60577 -178.106
lowerback 14.4211 1.19281 1.00822
upperback -3.53364 1.7492 -0.354559
thorax -11.9722 0.733735 -1.38716
lowerneck -7.31334 -3.91786 -6.63417
upperneck 0.741799 -4.9177 6.3332
head 1.88855 -2.38224 3.03742
rclavicle 1.26539e-014 -1.23246e-014
rhumerus -35.8647 18.1405 -94.8102
rradius 40.0108
rwrist 18.6669
rhand -9.23985 -57.0453
rfingers 7.12502
rthumb 16.7155 -446.346
lclavicle 1.26539e-014 -1.23246e-014
lhumerus -37.0534 -8.42647 91.2049
lradius 45.1318
lwrist -11.7664
lhand -7.47598 -37.035
lfingers 7.12502
lthumb 18.413 -7.88648
rfemur -20.6891 2.82061 28.4534
rtibia 41.6672
rfoot -22.7777 -20.805
rtoes -1.88951
lfemur -25.9673 -6.19594 -19.0649
ltibia 48.5477
lfoot -28.5601 8.5543
ltoes -33.4729
226
root 8.12085 14.9495 15.1861 -177.499 -2.46482 -178.149
lowerback 13.7224 1.24959 0.876295
upperback -3.33275 1.80042 -0.289881
thorax -11.3339 0.780424 -1.22953
lowerneck -7.20253 -3.89669 -6.86702
upperneck 0.800743 -4.87362 6.37086
head 1.89456 -2.36012 3.09816
rclavicle -3.75206e-015 -1.17283e-014
rhumerus -35.5679 18.759 -94.8682
rradius 40.2593
rwrist 17.9005
rhand -9.96801 -56.1275
rfingers 7.12502
rthumb 16.0145 -445.486
lclavicle -3.75206e-015 -1.17283e-014
lhumerus -36.7309 -8.26185 91.3541
lradius 45.2339
lwrist -11.4504
lhand -7.44317 -36.9113
lfingers 7.12502
lthumb 18.4446 -7.76576
rfemur -19.8496 2.79171 28.3859
rtibia 40.5349
rfoot -22.1283 -20.7122
rtoes -3.36498
lfemur -25.1442 -6.4424 -19.1592
ltibia 47.4903
lfoot -28.115 9.13515
ltoes -34.3983
